<?xml version="1.0" encoding="utf-8"?>
<!-- Generator: Adobe Illustrator 23.0.1, SVG Export Plug-In . SVG Version: 6.00 Build 0)  -->
<svg version="1.1" id="Layer_1" xmlns="http://www.w3.org/2000/svg" xmlns:xlink="http://www.w3.org/1999/xlink" x="0px" y="0px"
	 viewBox="0 0 1367 868.7" style="enable-background:new 0 0 1367 868.7;" xml:space="preserve">
<style type="text/css">
	.st0{fill:#EDD8CB;stroke:#000000;stroke-width:6;stroke-linecap:round;stroke-linejoin:round;stroke-miterlimit:10;}
	.st1{fill:#EDD8CB;stroke:#000000;stroke-width:6;stroke-miterlimit:10;}
	.st2{fill:none;stroke:#000000;stroke-width:6;stroke-miterlimit:10;}
	.st3{fill:#EDD8CB;}
	.st4{stroke:#000000;stroke-width:6;stroke-linecap:round;stroke-linejoin:round;stroke-miterlimit:10;}
	.st5{fill:none;stroke:#F94D45;stroke-width:10;stroke-miterlimit:10;}
	.st6{fill:none;stroke:#000000;stroke-width:6;stroke-linecap:round;stroke-linejoin:round;stroke-miterlimit:10;}
	.st7{fill:#F94D45;}
	.st8{fill:#FFFFFF;}
	.st9{fill:#FEC64E;stroke:#000000;stroke-width:6;stroke-miterlimit:10;}
	.st10{fill:#FEC64E;}
	.st11{fill:#F94D45;stroke:#000000;stroke-width:6;stroke-miterlimit:10;}
</style>
<polygon class="st0" points="176.7,189 145.4,263.3 63.5,341.9 95.2,260 "/>
<rect x="95.2" y="260" class="st0" width="226.9" height="214.4"/>
<polygon class="st0" points="396.6,374.3 322,474.3 322,250.7 396.2,189 "/>
<polygon class="st0" points="396.2,189 176.7,189 95.2,260 322,260 "/>
<polygon class="st0" points="396.2,189 424.7,253.1 353.4,331.7 321.7,260 "/>
<polygon class="st0" points="76.5,345.6 95.5,260 322,260 299.3,345.6 "/>
<line class="st6" x1="178.8" y1="260" x2="178.8" y2="189"/>
<polygon class="st4" points="144.9,260 178.8,229.4 353.4,229.4 322,260 "/>
<g>
	<rect x="116.1" y="361.2" class="st7" width="181.1" height="91.9"/>
	<rect x="116.1" y="385.7" class="st8" width="181.1" height="53.5"/>
	<rect x="116.1" y="361.2" class="st2" width="181.1" height="91.9"/>
	<g>
		<path d="M151.8,414c0-1.5-1.2-2.5-3.5-2.5c-2.1,0-4.8,1.1-6.3,2l-2.3-4.5c0,0,3.9-2.6,9-2.6c4.8,0,9.2,2.2,9.2,7.8v13.8h-6v-2
			c-1.1,1.7-3.5,2.5-5.9,2.5c-4.5,0-7.4-3.2-7.4-6.6c0-4,2.9-6.5,7.6-6.5h4.1c1,0,1.5-0.5,1.5-1.2V414z M151.8,420.5V419
			c-0.4,0.4-1,0.5-1.8,0.5h-2.3c-1.9,0-3,0.8-3,2.3c0,1.4,1.2,2.5,3,2.5C149.9,424.3,151.8,423.1,151.8,420.5z"/>
		<path d="M174.9,406.4c4.6,0,7.8,2.9,7.8,7.8v13.8h-6v-12.3c0-2.7-1.7-3.8-3.6-3.8c-1.7,0-3.3,1-4.5,2.4v13.7h-6V407h5.8v0.8
			c0,0.7-0.1,1.7-0.1,1.7C170.1,407.5,172.5,406.4,174.9,406.4z"/>
		<path d="M194.9,428.1h-6v-16H186V407h8.9V428.1z M191.6,395.9c2.2,0,3.9,1.7,3.9,3.9c0,2.2-1.7,3.8-3.9,3.8
			c-2.1,0-3.8-1.7-3.8-3.8C187.8,397.6,189.5,395.9,191.6,395.9z"/>
		<path d="M227.7,415.7c0-2.6-1.7-3.7-3.5-3.7c-1.7,0-3.2,1-4.4,2.4v13.7h-6v-12.4c0-2.5-1.6-3.7-3.5-3.7c-1.7,0-3.2,1-4.4,2.4v13.7
			h-6V407h5.8v0.8c0,0.7-0.1,1.7-0.1,1.7c1.6-1.9,3.9-3,6.3-3c3.1,0,5.6,1.3,6.8,3.8c1.7-2.4,4.1-3.8,7.1-3.8c4.6,0,7.8,2.9,7.8,7.8
			v13.8h-6V415.7z"/>
		<path d="M250.3,414c0-1.5-1.2-2.5-3.5-2.5c-2.1,0-4.8,1.1-6.3,2l-2.3-4.5c0,0,3.9-2.6,9-2.6c4.8,0,9.2,2.2,9.2,7.8v13.8h-6v-2
			c-1.1,1.7-3.5,2.5-5.9,2.5c-4.5,0-7.4-3.2-7.4-6.6c0-4,2.9-6.5,7.6-6.5h4.1c1,0,1.5-0.5,1.5-1.2V414z M250.3,420.5V419
			c-0.4,0.4-1,0.5-1.8,0.5h-2.3c-1.9,0-3,0.8-3,2.3c0,1.4,1.2,2.5,3,2.5C248.4,424.3,250.3,423.1,250.3,420.5z"/>
		<path d="M267.1,428.1h-5.9v-32.2h5.9V428.1z"/>
	</g>
</g>
<g>
	<rect x="158.6" y="43.7" class="st10" width="181.1" height="91.9"/>
	<rect x="158.6" y="43.7" class="st2" width="181.1" height="91.9"/>
	<g>
		<path d="M174.1,88.4c-2.2,0-4-1.7-4-3.9c0-0.6,0.3-1.6,0.6-2.2l3.5-6.5h4.7l-2.6,5.6c1,0.7,1.7,1.8,1.7,3.1
			C177.9,86.7,176.2,88.4,174.1,88.4z M184,88.4c-2.2,0-4-1.7-4-3.9c0-0.6,0.3-1.6,0.6-2.2l3.5-6.5h4.7l-2.6,5.6
			c1.1,0.7,1.7,1.8,1.7,3.1C187.8,86.7,186.1,88.4,184,88.4z"/>
		<path d="M191.9,81.8v-5.5h24.4v5.2l-16.9,20.2h16.9v5.4h-24.8v-5l17.1-20.3H191.9z"/>
		<path d="M239.5,98.8h-15c0.3,2.2,2.1,4,4.6,4c1.7,0,3.3-0.7,4-2.1l5.9,0.6c-1.8,4.3-5.6,6.3-10.1,6.3c-6,0-10.6-4.4-10.6-10.6
			c0-6.2,4.4-10.6,10.5-10.6c5.5,0,10.6,3.6,10.6,12.1V98.8z M224.4,95h9c-0.3-2-2-3.7-4.4-3.7S224.9,92.8,224.4,95z"/>
		<path d="M248.7,107.2h-5.7V76.4h5.7v9.9c0,1.3-0.1,2.7-0.1,3.3c1-1.7,3.3-3.1,6.4-3.1c5.5,0,9.8,4.4,9.8,10.6
			c0,6.2-4.3,10.6-9.8,10.6c-2.9,0-5.2-1.4-6.2-3.1V107.2z M248.5,97.1c0,3.1,2.1,5.5,5.1,5.5c3,0,5.1-2.5,5.1-5.5
			c0-3.1-2.1-5.5-5.1-5.5C250.6,91.6,248.5,94,248.5,97.1z"/>
		<path d="M280.8,92.7h-2.4c-2.9,0-4.2,1.4-4.2,4.9v9.6h-5.7V87h5.5v3.2c0.8-2.2,2.7-3.5,5.2-3.5c0.5,0,1.1,0,1.6,0.2V92.7z"/>
		<path d="M295,93.8c0-1.5-1.1-2.4-3.3-2.4c-2,0-4.6,1-6.1,1.9l-2.2-4.3c0,0,3.7-2.5,8.6-2.5c4.6,0,8.8,2.1,8.8,7.4v13.2H295v-1.9
			c-1.1,1.6-3.3,2.4-5.6,2.4c-4.3,0-7-3-7-6.3c0-3.8,2.8-6.2,7.3-6.2h4c1,0,1.4-0.4,1.4-1.2V93.8z M295,100v-1.5
			c-0.4,0.4-1,0.4-1.8,0.4h-2.2c-1.8,0-2.9,0.8-2.9,2.2c0,1.4,1.1,2.4,2.9,2.4C293.1,103.5,295,102.5,295,100z"/>
		<path d="M309.3,75.9c2.2,0,4,1.7,4,3.9c0,0.7-0.3,1.7-0.6,2.2l-3.5,6.5h-4.7l2.6-5.6c-1-0.7-1.7-1.8-1.7-3.1
			C305.5,77.6,307.2,75.9,309.3,75.9z M319.2,75.9c2.2,0,4,1.7,4,3.9c0,0.7-0.3,1.7-0.6,2.2l-3.4,6.5h-4.7l2.6-5.6
			c-1-0.7-1.7-1.8-1.7-3.1C315.4,77.6,317.1,75.9,319.2,75.9z"/>
	</g>
</g>
<polygon class="st11" points="284,217.8 272.6,206.4 258,221.1 258,149.6 242,149.6 242,221.1 227.7,206.8 216.4,218.1 250,251.8 
	261.4,240.4 261.3,240.4 "/>
<polygon class="st0" points="444,539 412.7,613.3 330.8,691.9 362.5,610 "/>
<rect x="362.5" y="610" class="st0" width="226.9" height="214.4"/>
<polygon class="st0" points="663.9,724.3 589.4,824.3 589.4,600.7 663.6,539 "/>
<polygon class="st0" points="663.6,539 444,539 362.5,610 589.4,610 "/>
<polygon class="st0" points="663.6,539 692,603.1 620.7,681.7 589.1,610 "/>
<polygon class="st0" points="343.8,695.6 362.8,610 589.4,610 566.6,695.6 "/>
<line class="st6" x1="446.1" y1="610" x2="446.1" y2="539"/>
<polygon class="st4" points="412.2,610 446.1,579.4 620.7,579.4 589.4,610 "/>
<g>
	<rect x="383.4" y="711.2" class="st7" width="181.1" height="91.9"/>
	<rect x="383.4" y="735.7" class="st8" width="181.1" height="53.5"/>
	<rect x="383.4" y="711.2" class="st2" width="181.1" height="91.9"/>
	<g>
		<path d="M428,767.5c0,3.3,2.2,5.8,5.3,5.8c2.2,0,3.9-1.2,4.6-3.2l5.6,1.7c-1.4,4.2-5.5,6.8-10.3,6.8c-6.3,0-11.2-4.6-11.2-11.1
			s5-11.1,11.2-11.1c4.8,0,8.9,2.7,10.3,6.9L438,765c-0.8-1.9-2.4-3.2-4.6-3.2C430.2,761.8,428,764.2,428,767.5z"/>
		<path d="M445.8,767.5c0-6.4,5-11.1,11.3-11.1c6.3,0,11.3,4.6,11.3,11.1s-5,11.1-11.3,11.1C450.8,778.6,445.8,774,445.8,767.5z
			 M451.8,767.5c0,3.3,2.2,5.8,5.3,5.8c3.1,0,5.2-2.5,5.2-5.8c0-3.3-2.2-5.8-5.2-5.8C453.9,761.8,451.8,764.2,451.8,767.5z"/>
		<path d="M478.1,778.1h-5.9v-32.2h5.9V778.1z"/>
		<path d="M481.9,767.5c0-6.4,5-11.1,11.3-11.1c6.3,0,11.3,4.6,11.3,11.1s-5,11.1-11.3,11.1C486.9,778.6,481.9,774,481.9,767.5z
			 M487.9,767.5c0,3.3,2.2,5.8,5.3,5.8c3.1,0,5.2-2.5,5.2-5.8c0-3.3-2.2-5.8-5.2-5.8C490,761.8,487.9,764.2,487.9,767.5z"/>
		<path d="M521.2,762.9h-2.5c-3,0-4.4,1.4-4.4,5.1v10.1h-6V757h5.8v3.4c0.8-2.3,2.9-3.6,5.5-3.6c0.6,0,1.1,0,1.7,0.2V762.9z"/>
	</g>
</g>
<g>
	<rect x="426" y="393.7" class="st10" width="181.1" height="91.9"/>
	<rect x="426" y="393.7" class="st2" width="181.1" height="91.9"/>
	<g>
		<path d="M457.6,439c-2.3,0-4.2-1.8-4.2-4c0-0.6,0.3-1.7,0.6-2.3l3.6-6.8h4.9l-2.7,5.8c1.1,0.7,1.7,1.8,1.7,3.3
			C461.6,437.2,459.8,439,457.6,439z M467.9,439c-2.3,0-4.2-1.8-4.2-4c0-0.6,0.3-1.7,0.6-2.3l3.6-6.8h4.9l-2.7,5.8
			c1.1,0.7,1.7,1.8,1.7,3.3C471.9,437.2,470.1,439,467.9,439z"/>
		<path d="M488.6,446.2h-4.5v12.4h-6.4v-32.2h12.1c7,0,11.2,4.2,11.2,9.8c0,3-1.2,6.9-6.1,8.8l8.2,13.6h-7.4L488.6,446.2z
			 M488.9,431.9h-4.9v8.7h4.9c3.5,0,5.6-1.7,5.6-4.4C494.5,433.4,492.5,431.9,488.9,431.9z"/>
		<path d="M525.5,449.8h-15.7c0.3,2.3,2.2,4.2,4.8,4.2c1.7,0,3.4-0.7,4.2-2.2l6.2,0.6c-1.9,4.5-5.8,6.6-10.5,6.6
			c-6.3,0-11-4.6-11-11.1s4.6-11.1,10.9-11.1c5.8,0,11,3.8,11,12.6V449.8z M509.7,445.8h9.4c-0.3-2.1-2.1-3.9-4.6-3.9
			C511.9,441.9,510.1,443.6,509.7,445.8z"/>
		<path d="M544.5,455.9c-1.1,1.7-3.5,3.2-6.6,3.2c-5.8,0-10.2-4.6-10.2-11.1s4.4-11.1,10.2-11.1c3.2,0,5.7,1.5,6.7,3.3
			c0-0.7-0.1-2.4-0.1-4v-9.8h6v32.2h-6V455.9z M533.9,448.1c0,3.2,2.2,5.8,5.4,5.8s5.4-2.6,5.4-5.8c0-3.3-2.2-5.8-5.4-5.8
			S533.9,444.8,533.9,448.1z"/>
		<path d="M560.1,425.8c2.3,0,4.2,1.8,4.2,4c0,0.7-0.3,1.7-0.6,2.3l-3.6,6.8h-4.9l2.7-5.8c-1.1-0.7-1.7-1.8-1.7-3.3
			C556.1,427.6,557.9,425.8,560.1,425.8z M570.4,425.8c2.3,0,4.2,1.8,4.2,4c0,0.7-0.3,1.7-0.6,2.3l-3.6,6.8h-4.9l2.7-5.8
			c-1.1-0.7-1.7-1.8-1.7-3.3C566.4,427.6,568.2,425.8,570.4,425.8z"/>
	</g>
</g>
<polygon class="st11" points="551.3,567.8 540,556.5 525.3,571.1 525.3,499.6 509.3,499.6 509.3,571.1 495,556.8 483.7,568.1 
	517.4,601.8 528.7,590.5 528.6,590.4 "/>
<polygon class="st0" points="760.9,182.6 729.6,256.9 647.7,335.5 679.4,253.6 "/>
<rect x="679.4" y="253.6" class="st0" width="226.9" height="214.4"/>
<polygon class="st0" points="980.8,367.8 906.3,467.9 906.3,244.3 980.5,182.6 "/>
<polygon class="st0" points="980.5,182.6 760.9,182.6 679.4,253.6 906.3,253.6 "/>
<polygon class="st0" points="980.5,182.6 1008.9,246.7 937.7,325.2 906,253.6 "/>
<polygon class="st0" points="660.7,339.2 679.7,253.6 906.3,253.6 883.5,339.2 "/>
<line class="st6" x1="763" y1="253.6" x2="763" y2="182.6"/>
<polygon class="st4" points="729.1,253.6 763,222.9 937.7,222.9 906.3,253.6 "/>
<g>
	<rect x="700.3" y="354.7" class="st7" width="181.1" height="91.9"/>
	<rect x="700.3" y="379.3" class="st8" width="181.1" height="53.5"/>
	<rect x="700.3" y="354.7" class="st2" width="181.1" height="91.9"/>
	<g>
		<path d="M734.3,399.1v19.7c0,2.9-1.4,5.6-5.9,5.6h-8V420h6.7c0.9,0,2-0.2,2-1.6v-3.5c-0.9,1.5-3.1,2.8-5.7,2.8
			c-5,0-8.8-3.8-8.8-9.5c0-5.8,3.8-9.5,8.8-9.5c2.8,0,4.9,1.3,5.8,2.8c0-0.2-0.1-0.6-0.1-1.5v-0.8H734.3z M724.6,413.2
			c2.8,0,4.6-2,4.6-5c0-3-1.9-5-4.6-5c-2.7,0-4.6,2-4.6,5C720,411.1,721.9,413.2,724.6,413.2z"/>
		<path d="M750.1,404.2h-2.2c-2.6,0-3.8,1.2-3.8,4.4v8.8h-5.2v-18.3h5v2.9c0.7-2,2.5-3.2,4.8-3.2c0.5,0,1,0,1.4,0.2V404.2z"/>
		<path d="M770.7,409.8h-13.6c0.3,2,1.9,3.7,4.2,3.7c1.5,0,3-0.6,3.7-1.9l5.4,0.6c-1.6,3.9-5.1,5.8-9.2,5.8c-5.5,0-9.6-4-9.6-9.6
			c0-5.6,4-9.6,9.5-9.6c5,0,9.6,3.3,9.6,11V409.8z M757,406.3h8.2c-0.3-1.8-1.8-3.4-4-3.4C758.9,403,757.4,404.4,757,406.3z"/>
		<path d="M791.8,409.8h-13.6c0.3,2,1.9,3.7,4.2,3.7c1.5,0,3-0.6,3.7-1.9l5.4,0.6c-1.6,3.9-5.1,5.8-9.2,5.8c-5.5,0-9.6-4-9.6-9.6
			c0-5.6,4-9.6,9.5-9.6c5,0,9.6,3.3,9.6,11V409.8z M778,406.3h8.2c-0.3-1.8-1.8-3.4-4-3.4C780,403,778.4,404.4,778,406.3z"/>
		<path d="M801.4,392.2v7h4v4.4h-4v8.3c0,1.2,0.9,1.3,1.7,1.3c1.3,0,2.4-0.1,2.4-0.1v4.4c0,0-2.5,0.2-4,0.2c-2.6,0-5.3-0.4-5.3-4.1
			v-10h-2.9v-4.4h2.9v-7H801.4z"/>
		<path d="M815.3,417.4h-5.2v-13.9h-2.6v-4.4h7.8V417.4z M812.4,389.4c1.9,0,3.4,1.5,3.4,3.4c0,1.9-1.5,3.3-3.4,3.3
			c-1.8,0-3.3-1.4-3.3-3.3C809.1,391,810.6,389.4,812.4,389.4z"/>
		<path d="M830.3,398.6c4,0,6.8,2.5,6.8,6.8v12h-5.2v-10.7c0-2.3-1.5-3.3-3.1-3.3c-1.5,0-2.9,0.8-3.9,2.1v11.9h-5.2v-18.3h5.1v0.7
			c0,0.6-0.1,1.4-0.1,1.4C826.1,399.6,828.2,398.6,830.3,398.6z"/>
		<path d="M860,399.1v19.7c0,2.9-1.4,5.6-5.9,5.6h-8V420h6.7c0.9,0,2-0.2,2-1.6v-3.5c-0.9,1.5-3.1,2.8-5.7,2.8c-5,0-8.8-3.8-8.8-9.5
			c0-5.8,3.8-9.5,8.8-9.5c2.8,0,4.9,1.3,5.8,2.8c0-0.2-0.1-0.6-0.1-1.5v-0.8H860z M850.3,413.2c2.8,0,4.6-2,4.6-5c0-3-1.9-5-4.6-5
			c-2.7,0-4.6,2-4.6,5C845.7,411.1,847.5,413.2,850.3,413.2z"/>
	</g>
</g>
<g>
	<rect x="683.7" y="37.3" class="st9" width="301.4" height="91.9"/>
	<g>
		<path d="M700.1,81.5c-2.1,0-3.9-1.6-3.9-3.7c0-0.6,0.3-1.6,0.6-2.1l3.3-6.2h4.5l-2.4,5.3c1,0.6,1.6,1.7,1.6,3
			C703.7,79.8,702.1,81.5,700.1,81.5z M709.5,81.5c-2.1,0-3.8-1.6-3.8-3.7c0-0.6,0.3-1.6,0.5-2.1l3.3-6.2h4.5l-2.4,5.3
			c1,0.6,1.6,1.7,1.6,3C713.1,79.8,711.5,81.5,709.5,81.5z"/>
		<path d="M735.9,99.4V86.9h-11.7v12.5h-5.8V70h5.8v11.9h11.7V70h5.8v29.4H735.9z"/>
		<path d="M765.5,91.3h-14.3c0.3,2.1,2,3.9,4.4,3.9c1.6,0,3.1-0.7,3.9-2l5.7,0.6c-1.7,4.1-5.3,6-9.6,6c-5.8,0-10.1-4.2-10.1-10.1
			c0-5.9,4.2-10.1,10-10.1c5.3,0,10.1,3.4,10.1,11.5V91.3z M751.1,87.7h8.6c-0.3-1.9-1.9-3.5-4.2-3.5S751.5,85.6,751.1,87.7z"/>
		<path d="M774.2,99.4h-5.4V70h5.4V99.4z"/>
		<path d="M784.3,99.4h-5.4V70h5.4V99.4z"/>
		<path d="M787.8,89.7c0-5.9,4.6-10.1,10.3-10.1c5.7,0,10.3,4.2,10.3,10.1c0,5.9-4.6,10.1-10.3,10.1
			C792.4,99.9,787.8,95.6,787.8,89.7z M793.3,89.7c0,3,2,5.3,4.8,5.3c2.8,0,4.8-2.3,4.8-5.3c0-3-2-5.3-4.8-5.3
			C795.2,84.5,793.3,86.7,793.3,89.7z"/>
		<path d="M815.2,92.6c2.1,0,3.8,1.6,3.8,3.7c0,0.6-0.3,1.6-0.5,2.1l-3.3,6.2h-4.4l2.4-5.3c-1-0.6-1.6-1.7-1.6-3
			C811.5,94.2,813.1,92.6,815.2,92.6z"/>
		<path d="M851.6,70l5.6,21h0l4.7-21h6l-7.2,29.4H854l-5.5-21.1l-5.4,21.1h-6.8L829,70h6.3l4.5,21h0l5.6-21H851.6z"/>
		<path d="M868.2,89.7c0-5.9,4.6-10.1,10.3-10.1c5.7,0,10.3,4.2,10.3,10.1c0,5.9-4.6,10.1-10.3,10.1
			C872.8,99.9,868.2,95.6,868.2,89.7z M873.7,89.7c0,3,2,5.3,4.8,5.3c2.8,0,4.8-2.3,4.8-5.3c0-3-2-5.3-4.8-5.3
			C875.6,84.5,873.7,86.7,873.7,89.7z"/>
		<path d="M904.1,85.5h-2.3c-2.8,0-4,1.3-4,4.7v9.2h-5.5V80.1h5.3v3.1c0.8-2.1,2.6-3.3,5-3.3c0.5,0,1,0,1.5,0.2V85.5z"/>
		<path d="M912.5,99.4h-5.4V70h5.4V99.4z"/>
		<path d="M931.4,96.9c-1,1.6-3.2,2.9-6,2.9c-5.3,0-9.3-4.2-9.3-10.1c0-5.9,4-10.1,9.3-10.1c2.9,0,5.2,1.3,6.1,3
			c0-0.6-0.1-2.2-0.1-3.7v-9h5.5v29.4h-5.5V96.9z M921.7,89.7c0,2.9,2,5.3,4.9,5.3s4.9-2.4,4.9-5.3c0-3-2-5.3-4.9-5.3
			S921.7,86.8,921.7,89.7z"/>
		<path d="M945.1,92.6c2,0,3.7,1.6,3.7,3.7s-1.6,3.7-3.7,3.7c-2,0-3.7-1.6-3.7-3.7S943,92.6,945.1,92.6z M942.4,89.9L942,70h6
			l-0.4,19.9H942.4z"/>
		<path d="M957.2,69.5c2.1,0,3.9,1.6,3.9,3.7c0,0.6-0.3,1.6-0.6,2.1l-3.3,6.2h-4.5l2.4-5.3c-1-0.6-1.6-1.7-1.6-3
			C953.6,71.1,955.2,69.5,957.2,69.5z M966.6,69.5c2.1,0,3.9,1.6,3.9,3.7c0,0.6-0.3,1.6-0.6,2.1l-3.3,6.2h-4.5l2.4-5.3
			c-1-0.6-1.6-1.7-1.6-3C963,71.1,964.6,69.5,966.6,69.5z"/>
	</g>
</g>
<polygon class="st11" points="868.2,211.3 856.9,200 842.2,214.7 842.2,143.2 826.2,143.2 826.2,214.7 811.9,200.4 800.6,211.7 
	834.3,245.3 845.6,234 845.5,234 "/>
<polygon class="st0" points="1051.9,538.1 1020.6,612.5 938.7,691 970.4,609.1 "/>
<rect x="968.3" y="608.2" class="st0" width="226.9" height="214.4"/>
<polygon class="st0" points="1269.7,722.5 1195.2,822.5 1195.2,598.9 1269.4,537.2 "/>
<polygon class="st0" points="1269.4,537.2 1049.8,537.2 968.3,608.2 1195.2,608.2 "/>
<polygon class="st0" points="1269.4,537.2 1297.8,601.3 1226.5,679.9 1194.9,608.2 "/>
<polygon class="st0" points="949.6,693.8 968.6,608.2 1195.2,608.2 1172.4,693.8 "/>
<line class="st6" x1="1051.9" y1="608.2" x2="1051.9" y2="537.2"/>
<polygon class="st4" points="1018,608.2 1051.9,577.6 1226.5,577.6 1195.2,608.2 "/>
<g>
	<rect x="989.2" y="709.4" class="st7" width="181.1" height="91.9"/>
	<rect x="989.2" y="734" class="st8" width="181.1" height="53.5"/>
	<rect x="989.2" y="709.4" class="st2" width="181.1" height="91.9"/>
	<g>
		<path d="M1038.7,749.2c0-4.1,2.8-5.6,6-5.6c1.6,0,4.4,0.3,4.4,0.3v5.5c0,0-1.8-0.2-2.5-0.2c-1.2,0-1.9,0.3-1.9,1.7v4.3h4v5.1h-4
			v16h-6v-16h-3.3v-5.1h3.3V749.2z"/>
		<path d="M1065,761.1h-2.5c-3,0-4.4,1.4-4.4,5.1v10.1h-6v-21.1h5.8v3.4c0.8-2.3,2.9-3.6,5.5-3.6c0.6,0,1.1,0,1.7,0.2V761.1z"/>
		<path d="M1068,768.6v-13.3h6v12.2c0,2.9,1.9,4,4,4c2.2,0,4-1.2,4-4v-12.2h5.9v13.3c0,4.4-3.5,8.3-10,8.3
			C1071.6,776.8,1068,773,1068,768.6z"/>
		<path d="M1100.1,776.3h-6v-16h-2.9v-5.1h8.9V776.3z M1096.8,744.1c2.2,0,3.9,1.7,3.9,3.9c0,2.2-1.7,3.8-3.9,3.8
			c-2.1,0-3.8-1.7-3.8-3.8C1093,745.8,1094.7,744.1,1096.8,744.1z"/>
		<path d="M1112.8,747.2v8h4.6v5.1h-4.6v9.5c0,1.3,1.1,1.5,2,1.5c1.5,0,2.8-0.1,2.8-0.1v5.1c0,0-2.9,0.3-4.6,0.3
			c-3,0-6.1-0.5-6.1-4.7v-11.5h-3.3v-5.1h3.3v-8H1112.8z"/>
	</g>
</g>
<g>
	<rect x="1020.8" y="391.9" class="st9" width="207.9" height="91.9"/>
	<g>
		<path d="M1034.1,437.2c-2.3,0-4.2-1.8-4.2-4c0-0.6,0.3-1.7,0.6-2.3l3.6-6.8h4.9l-2.7,5.8c1.1,0.7,1.7,1.8,1.7,3.3
			C1038.1,435.4,1036.3,437.2,1034.1,437.2z M1044.4,437.2c-2.3,0-4.2-1.8-4.2-4c0-0.6,0.3-1.7,0.6-2.3l3.6-6.8h4.9l-2.7,5.8
			c1.1,0.7,1.7,1.8,1.7,3.3C1048.4,435.4,1046.6,437.2,1044.4,437.2z"/>
		<path d="M1070.3,439.5L1070.3,439.5c3.7,1.6,6,4.3,6,8.1c0,5.2-3.8,9.2-10.6,9.2h-11.5v-32.2h10.4c6.6,0,9.9,4.1,9.9,8.2
			C1074.5,435.6,1073.1,438.2,1070.3,439.5z M1060.6,430v7.2h3.3c2.3,0,4.2-1.1,4.2-3.6s-2-3.5-4.2-3.5H1060.6z M1060.6,451.4h3.3
			c3.9,0,5.7-1.8,5.7-4.4c0-2.7-2.3-4.1-5.4-4.1h-3.6V451.4z"/>
		<path d="M1091.9,442.8c0-1.5-1.2-2.5-3.5-2.5c-2.1,0-4.8,1.1-6.3,2l-2.3-4.5c0,0,3.9-2.6,9-2.6c4.8,0,9.2,2.2,9.2,7.8v13.8h-6v-2
			c-1.1,1.7-3.5,2.5-5.9,2.5c-4.5,0-7.4-3.2-7.4-6.6c0-4,2.9-6.5,7.6-6.5h4.1c1,0,1.5-0.5,1.5-1.2V442.8z M1091.9,449.3v-1.5
			c-0.4,0.4-1,0.5-1.8,0.5h-2.3c-1.9,0-3,0.8-3,2.3c0,1.4,1.2,2.5,3,2.5C1090,453,1091.9,451.9,1091.9,449.3z"/>
		<path d="M1115,435.2c4.6,0,7.8,2.9,7.8,7.8v13.8h-6v-12.3c0-2.7-1.7-3.8-3.6-3.8c-1.7,0-3.3,1-4.5,2.4v13.7h-6v-21.1h5.8v0.8
			c0,0.7-0.1,1.7-0.1,1.7C1110.2,436.2,1112.5,435.2,1115,435.2z"/>
		<path d="M1139.4,442.8c0-1.5-1.2-2.5-3.5-2.5c-2.1,0-4.8,1.1-6.3,2l-2.3-4.5c0,0,3.9-2.6,9-2.6c4.8,0,9.2,2.2,9.2,7.8v13.8h-6v-2
			c-1.1,1.7-3.5,2.5-5.9,2.5c-4.5,0-7.4-3.2-7.4-6.6c0-4,2.9-6.5,7.6-6.5h4.1c1,0,1.5-0.5,1.5-1.2V442.8z M1139.4,449.3v-1.5
			c-0.4,0.4-1,0.5-1.8,0.5h-2.3c-1.9,0-3,0.8-3,2.3c0,1.4,1.2,2.5,3,2.5C1137.5,453,1139.4,451.9,1139.4,449.3z"/>
		<path d="M1162.5,435.2c4.6,0,7.8,2.9,7.8,7.8v13.8h-6v-12.3c0-2.7-1.7-3.8-3.6-3.8c-1.7,0-3.3,1-4.5,2.4v13.7h-6v-21.1h5.8v0.8
			c0,0.7-0.1,1.7-0.1,1.7C1157.7,436.2,1160.1,435.2,1162.5,435.2z"/>
		<path d="M1186.9,442.8c0-1.5-1.2-2.5-3.5-2.5c-2.1,0-4.8,1.1-6.3,2l-2.3-4.5c0,0,3.9-2.6,9-2.6c4.8,0,9.2,2.2,9.2,7.8v13.8h-6v-2
			c-1.1,1.7-3.5,2.5-5.9,2.5c-4.5,0-7.4-3.2-7.4-6.6c0-4,2.9-6.5,7.6-6.5h4.1c1,0,1.5-0.5,1.5-1.2V442.8z M1186.9,449.3v-1.5
			c-0.4,0.4-1,0.5-1.8,0.5h-2.3c-1.9,0-3,0.8-3,2.3c0,1.4,1.2,2.5,3,2.5C1185,453,1186.9,451.9,1186.9,449.3z"/>
		<path d="M1201.9,424.1c2.3,0,4.2,1.8,4.2,4c0,0.7-0.3,1.7-0.6,2.3l-3.6,6.8h-4.9l2.7-5.8c-1.1-0.7-1.7-1.8-1.7-3.3
			C1197.9,425.8,1199.7,424.1,1201.9,424.1z M1212.2,424.1c2.3,0,4.2,1.8,4.2,4c0,0.7-0.3,1.7-0.6,2.3l-3.6,6.8h-4.9l2.7-5.8
			c-1.1-0.7-1.7-1.8-1.7-3.3C1208.2,425.8,1210,424.1,1212.2,424.1z"/>
	</g>
</g>
<polygon class="st11" points="1157.1,566 1145.8,554.7 1131.1,569.3 1131.1,497.8 1115.1,497.8 1115.1,569.3 1100.8,555 
	1089.5,566.3 1123.2,600 1134.5,588.7 1134.4,588.6 "/>
</svg>
